<svg width="1440" height="602" viewBox="0 0 1440 602" fill="none" xmlns="http://www.w3.org/2000/svg">
<g style="mix-blend-mode:lighten" filter="url(#filter0_ii_237_1752)">
<path d="M85.9743 419.5V204.971H-1V184.729H137.206V204.971H109.261V428L85.9743 419.5Z" fill="url(#paint0_linear_237_1752)"/>
<path d="M148.738 296.433V184.729H172.025V233.009H215.594V184.729H238.881V296.433H215.594V253.251H172.025V296.433H148.738Z" fill="url(#paint1_linear_237_1752)"/>
<path d="M303.247 298.232C294.433 298.232 286.57 296.383 279.659 292.685C272.748 288.986 267.29 283.938 263.283 277.541C259.377 271.043 257.424 263.697 257.424 255.5V184.729H280.711V254C280.711 258.399 281.663 262.397 283.566 265.996C285.569 269.494 288.273 272.243 291.679 274.242C295.084 276.241 298.94 277.241 303.247 277.241C307.654 277.241 311.51 276.241 314.815 274.242C318.221 272.243 320.875 269.494 322.778 265.996C324.781 262.397 325.783 258.399 325.783 254V184.729H346.215C347.317 184.729 348.569 184.329 349.971 183.53C351.474 182.73 352.225 180.681 352.225 177.382C352.225 175.783 351.924 173.983 351.323 171.984C350.722 169.885 350.021 167.886 349.22 165.987H368.15C369.152 168.086 369.953 170.185 370.554 172.284C371.255 174.283 371.606 176.632 371.606 179.331C371.606 186.528 369.703 191.826 365.897 195.225C362.191 198.523 356.932 200.173 350.122 200.173H349.07V255.5C349.07 263.697 347.067 271.043 343.06 277.541C339.154 283.938 333.745 288.986 326.834 292.685C319.923 296.383 312.061 298.232 303.247 298.232Z" fill="url(#paint2_linear_237_1752)"/>
<path d="M423.533 298.232C415.12 298.232 407.307 296.783 400.096 293.884C392.884 290.985 386.574 286.937 381.166 281.739C375.857 276.441 371.701 270.294 368.696 263.297C365.691 256.3 364.189 248.703 364.189 240.506C364.189 232.309 365.641 224.713 368.546 217.715C371.551 210.718 375.707 204.621 381.016 199.423C386.424 194.225 392.734 190.177 399.946 187.278C407.157 184.379 415.02 182.93 423.533 182.93H453.581C454.182 182.93 455.033 182.88 456.135 182.78C457.237 182.58 458.238 181.98 459.14 180.981C460.141 179.981 460.642 178.182 460.642 175.583C460.642 173.983 460.342 172.184 459.741 170.185C459.14 168.086 458.439 166.087 457.638 164.188H476.568C477.569 166.287 478.37 168.386 478.971 170.485C479.673 172.484 480.023 174.833 480.023 177.532C480.023 184.729 478.871 190.027 476.568 193.425C474.264 196.724 471.259 198.373 467.553 198.373H454.332L459.591 194.025C464.398 197.424 468.555 201.522 472.06 206.32C475.566 211.118 478.22 216.416 480.023 222.214C481.926 227.911 482.878 234.009 482.878 240.506C482.878 248.703 481.375 256.3 478.371 263.297C475.366 270.294 471.159 276.441 465.75 281.739C460.442 286.937 454.182 290.985 446.971 293.884C439.759 296.783 431.947 298.232 423.533 298.232ZM423.533 277.241C428.641 277.241 433.349 276.341 437.656 274.542C442.063 272.743 445.919 270.244 449.224 267.045C452.529 263.746 455.083 259.848 456.886 255.35C458.689 250.852 459.591 245.904 459.591 240.506C459.591 235.108 458.689 230.21 456.886 225.812C455.083 221.314 452.529 217.416 449.224 214.117C445.919 210.818 442.063 208.319 437.656 206.62C433.349 204.821 428.641 203.921 423.533 203.921C418.425 203.921 413.668 204.821 409.261 206.62C404.954 208.319 401.148 210.818 397.842 214.117C394.537 217.416 391.983 221.314 390.18 225.812C388.377 230.21 387.476 235.108 387.476 240.506C387.476 245.904 388.377 250.852 390.18 255.35C391.983 259.848 394.537 263.746 397.842 267.045C401.148 270.244 404.954 272.743 409.261 274.542C413.668 276.341 418.425 277.241 423.533 277.241Z" fill="url(#paint3_linear_237_1752)"/>
<path d="M499.393 296.433V184.729H517.272L577.367 263.746L567.752 265.996V0H591.039V296.433H573.01L513.967 216.816L522.68 214.567V296.433H499.393Z" fill="url(#paint4_linear_237_1752)"/>
<path d="M664.684 298.232C656.672 298.232 649.21 296.783 642.299 293.884C635.388 290.985 629.328 286.937 624.12 281.739C618.912 276.541 614.855 270.444 611.951 263.447C609.046 256.449 607.594 248.803 607.594 240.506C607.594 232.209 608.996 224.563 611.8 217.566C614.605 210.468 618.561 204.371 623.669 199.273C628.777 194.075 634.737 190.077 641.548 187.278C648.459 184.379 655.971 182.93 664.084 182.93C672.196 182.93 679.458 184.279 685.868 186.978C692.379 189.677 697.887 193.276 702.395 197.774C706.902 202.272 710.107 207.27 712.01 212.767L691.427 222.663C689.524 217.266 686.169 212.817 681.361 209.319C676.654 205.72 670.894 203.921 664.084 203.921C657.473 203.921 651.664 205.47 646.656 208.569C641.648 211.668 637.742 215.966 634.937 221.464C632.233 226.862 630.881 233.209 630.881 240.506C630.881 247.803 632.333 254.2 635.238 259.698C638.142 265.196 642.099 269.494 647.107 272.593C652.215 275.692 658.074 277.241 664.684 277.241C669.793 277.241 674.55 276.291 678.957 274.392C683.464 272.393 687.07 269.544 689.774 265.846C692.579 262.147 693.981 257.699 693.981 252.501V243.205L704.648 252.201H664.084V232.709H717.268V244.554C717.268 253.651 715.766 261.597 712.761 268.395C709.756 275.092 705.7 280.689 700.592 285.188C695.584 289.586 689.925 292.884 683.615 295.084C677.405 297.183 671.095 298.232 664.684 298.232Z" fill="url(#paint5_linear_237_1752)"/>
<path d="M758.644 296.433V184.729H781.931V233.009H825.5V184.729H848.787V296.433H825.5V253.251H781.931V296.433H758.644Z" fill="url(#paint6_linear_237_1752)"/>
<path d="M869.182 602L868.682 184.729H891.969V593.5L869.182 602Z" fill="url(#paint7_linear_237_1752)"/>
<path d="M911.817 296.433V184.729H987.087V204.971H935.104V230.31H984.082V250.552H935.104V276.191H987.087V296.433H911.817ZM938.259 332.418V309.927H960.795V332.418H938.259ZM918.578 170.635L936.006 145.145H962.898L980.476 170.635H958.842L949.527 157.14L940.212 170.635H918.578Z" fill="url(#paint8_linear_237_1752)"/>
<path d="M1044.76 298.232C1035.94 298.232 1028.08 296.383 1021.17 292.685C1014.26 288.986 1008.8 283.938 1004.8 277.541C1000.89 271.043 998.936 263.697 998.936 255.5V184.729H1022.22V254C1022.22 258.399 1023.17 262.397 1025.08 265.996C1027.08 269.494 1029.78 272.243 1033.19 274.242C1036.6 276.241 1040.45 277.241 1044.76 277.241C1049.17 277.241 1053.02 276.241 1056.33 274.242C1059.73 272.243 1062.39 269.494 1064.29 265.996C1066.29 262.397 1067.29 258.399 1067.29 254V184.729H1090.58V255.5C1090.58 263.697 1088.58 271.043 1084.57 277.541C1080.67 283.938 1075.26 288.986 1068.35 292.685C1061.44 296.383 1053.57 298.232 1044.76 298.232Z" fill="url(#paint9_linear_237_1752)"/>
<path d="M1189.79 298.232C1181.77 298.232 1174.31 296.783 1167.4 293.884C1160.49 290.985 1154.43 286.937 1149.22 281.739C1144.01 276.541 1139.96 270.444 1137.05 263.447C1134.15 256.449 1132.7 248.803 1132.7 240.506C1132.7 232.209 1134.1 224.563 1136.9 217.566C1139.71 210.468 1143.66 204.371 1148.77 199.273C1153.88 194.075 1159.84 190.077 1166.65 187.278C1173.56 184.379 1181.07 182.93 1189.19 182.93C1197.3 182.93 1204.56 184.279 1210.97 186.978C1217.48 189.677 1222.99 193.276 1227.5 197.774C1232 202.272 1235.21 207.27 1237.11 212.767L1216.53 222.663C1214.63 217.266 1211.27 212.817 1206.46 209.319C1201.76 205.72 1196 203.921 1189.19 203.921C1182.58 203.921 1176.77 205.47 1171.76 208.569C1166.75 211.668 1162.84 215.966 1160.04 221.464C1157.34 226.862 1155.98 233.209 1155.98 240.506C1155.98 247.803 1157.44 254.2 1160.34 259.698C1163.25 265.196 1167.2 269.494 1172.21 272.593C1177.32 275.692 1183.18 277.241 1189.79 277.241C1194.9 277.241 1199.65 276.291 1204.06 274.392C1208.57 272.393 1212.17 269.544 1214.88 265.846C1217.68 262.147 1219.08 257.699 1219.08 252.501V243.205L1229.75 252.201H1189.19V232.709H1242.37V244.554C1242.37 253.651 1240.87 261.597 1237.86 268.395C1234.86 275.092 1230.8 280.689 1225.69 285.188C1220.69 289.586 1215.03 292.884 1208.72 295.084C1202.51 297.183 1196.2 298.232 1189.79 298.232Z" fill="url(#paint10_linear_237_1752)"/>
<path d="M1275.42 449V204.971H1247.02V184.729H1326.65V204.971H1298.7V440L1275.42 449Z" fill="url(#paint11_linear_237_1752)"/>
<path d="M1387.42 298.232C1379.4 298.232 1371.94 296.783 1365.03 293.884C1358.12 290.985 1352.06 286.937 1346.85 281.739C1341.64 276.541 1337.59 270.444 1334.68 263.447C1331.78 256.449 1330.33 248.803 1330.33 240.506C1330.33 232.209 1331.73 224.563 1334.53 217.566C1337.34 210.468 1341.29 204.371 1346.4 199.273C1351.51 194.075 1357.47 190.077 1364.28 187.278C1371.19 184.379 1378.7 182.93 1386.82 182.93C1394.93 182.93 1402.19 184.279 1408.6 186.978C1415.11 189.677 1420.62 193.276 1425.13 197.774C1429.63 202.272 1432.84 207.27 1434.74 212.767L1414.16 222.663C1412.26 217.266 1408.9 212.817 1404.09 209.319C1399.39 205.72 1393.63 203.921 1386.82 203.921C1380.2 203.921 1374.4 205.47 1369.39 208.569C1364.38 211.668 1360.47 215.966 1357.67 221.464C1354.96 226.862 1353.61 233.209 1353.61 240.506C1353.61 247.803 1355.06 254.2 1357.97 259.698C1360.87 265.196 1364.83 269.494 1369.84 272.593C1374.95 275.692 1380.81 277.241 1387.42 277.241C1392.52 277.241 1397.28 276.291 1401.69 274.392C1406.2 272.393 1409.8 269.544 1412.51 265.846C1415.31 262.147 1416.71 257.699 1416.71 252.501V243.205L1427.38 252.201H1386.82V232.709H1440V244.554C1440 253.651 1438.5 261.597 1435.49 268.395C1432.49 275.092 1428.43 280.689 1423.32 285.188C1418.32 289.586 1412.66 292.884 1406.35 295.084C1400.14 297.183 1393.83 298.232 1387.42 298.232Z" fill="url(#paint12_linear_237_1752)"/>
</g>
<defs>
<filter id="filter0_ii_237_1752" x="-1" y="0" width="1441" height="606" filterUnits="userSpaceOnUse" color-interpolation-filters="sRGB">
<feFlood flood-opacity="0" result="BackgroundImageFix"/>
<feBlend mode="normal" in="SourceGraphic" in2="BackgroundImageFix" result="shape"/>
<feColorMatrix in="SourceAlpha" type="matrix" values="0 0 0 0 0 0 0 0 0 0 0 0 0 0 0 0 0 0 127 0" result="hardAlpha"/>
<feOffset dy="4"/>
<feGaussianBlur stdDeviation="2"/>
<feComposite in2="hardAlpha" operator="arithmetic" k2="-1" k3="1"/>
<feColorMatrix type="matrix" values="0 0 0 0 0.301961 0 0 0 0 0.635294 0 0 0 0 0.721569 0 0 0 0.16 0"/>
<feBlend mode="normal" in2="shape" result="effect1_innerShadow_237_1752"/>
<feColorMatrix in="SourceAlpha" type="matrix" values="0 0 0 0 0 0 0 0 0 0 0 0 0 0 0 0 0 0 127 0" result="hardAlpha"/>
<feOffset dy="4"/>
<feGaussianBlur stdDeviation="2"/>
<feComposite in2="hardAlpha" operator="arithmetic" k2="-1" k3="1"/>
<feColorMatrix type="matrix" values="0 0 0 0 0 0 0 0 0 0 0 0 0 0 0 0 0 0 0.25 0"/>
<feBlend mode="normal" in2="effect1_innerShadow_237_1752" result="effect2_innerShadow_237_1752"/>
</filter>
<linearGradient id="paint0_linear_237_1752" x1="-0.478337" y1="198.036" x2="1527.45" y2="293.168" gradientUnits="userSpaceOnUse">
<stop stop-color="white" stop-opacity="0"/>
<stop offset="0.195" stop-color="white"/>
<stop offset="0.785" stop-color="white"/>
<stop offset="1" stop-color="white" stop-opacity="0"/>
</linearGradient>
<linearGradient id="paint1_linear_237_1752" x1="-0.478337" y1="198.036" x2="1527.45" y2="293.168" gradientUnits="userSpaceOnUse">
<stop stop-color="white" stop-opacity="0"/>
<stop offset="0.195" stop-color="white"/>
<stop offset="0.785" stop-color="white"/>
<stop offset="1" stop-color="white" stop-opacity="0"/>
</linearGradient>
<linearGradient id="paint2_linear_237_1752" x1="-0.478337" y1="198.036" x2="1527.45" y2="293.168" gradientUnits="userSpaceOnUse">
<stop stop-color="white" stop-opacity="0"/>
<stop offset="0.195" stop-color="white"/>
<stop offset="0.785" stop-color="white"/>
<stop offset="1" stop-color="white" stop-opacity="0"/>
</linearGradient>
<linearGradient id="paint3_linear_237_1752" x1="-0.478337" y1="198.036" x2="1527.45" y2="293.168" gradientUnits="userSpaceOnUse">
<stop stop-color="white" stop-opacity="0"/>
<stop offset="0.195" stop-color="white"/>
<stop offset="0.785" stop-color="white"/>
<stop offset="1" stop-color="white" stop-opacity="0"/>
</linearGradient>
<linearGradient id="paint4_linear_237_1752" x1="-0.478337" y1="198.036" x2="1527.45" y2="293.168" gradientUnits="userSpaceOnUse">
<stop stop-color="white" stop-opacity="0"/>
<stop offset="0.195" stop-color="white"/>
<stop offset="0.785" stop-color="white"/>
<stop offset="1" stop-color="white" stop-opacity="0"/>
</linearGradient>
<linearGradient id="paint5_linear_237_1752" x1="-0.478337" y1="198.036" x2="1527.45" y2="293.168" gradientUnits="userSpaceOnUse">
<stop stop-color="white" stop-opacity="0"/>
<stop offset="0.195" stop-color="white"/>
<stop offset="0.785" stop-color="white"/>
<stop offset="1" stop-color="white" stop-opacity="0"/>
</linearGradient>
<linearGradient id="paint6_linear_237_1752" x1="-0.478337" y1="198.036" x2="1527.45" y2="293.168" gradientUnits="userSpaceOnUse">
<stop stop-color="white" stop-opacity="0"/>
<stop offset="0.195" stop-color="white"/>
<stop offset="0.785" stop-color="white"/>
<stop offset="1" stop-color="white" stop-opacity="0"/>
</linearGradient>
<linearGradient id="paint7_linear_237_1752" x1="-0.478337" y1="198.036" x2="1527.45" y2="293.168" gradientUnits="userSpaceOnUse">
<stop stop-color="white" stop-opacity="0"/>
<stop offset="0.195" stop-color="white"/>
<stop offset="0.785" stop-color="white"/>
<stop offset="1" stop-color="white" stop-opacity="0"/>
</linearGradient>
<linearGradient id="paint8_linear_237_1752" x1="-0.478337" y1="198.036" x2="1527.45" y2="293.168" gradientUnits="userSpaceOnUse">
<stop stop-color="white" stop-opacity="0"/>
<stop offset="0.195" stop-color="white"/>
<stop offset="0.785" stop-color="white"/>
<stop offset="1" stop-color="white" stop-opacity="0"/>
</linearGradient>
<linearGradient id="paint9_linear_237_1752" x1="-0.478337" y1="198.036" x2="1527.45" y2="293.168" gradientUnits="userSpaceOnUse">
<stop stop-color="white" stop-opacity="0"/>
<stop offset="0.195" stop-color="white"/>
<stop offset="0.785" stop-color="white"/>
<stop offset="1" stop-color="white" stop-opacity="0"/>
</linearGradient>
<linearGradient id="paint10_linear_237_1752" x1="-0.478337" y1="198.036" x2="1527.45" y2="293.168" gradientUnits="userSpaceOnUse">
<stop stop-color="white" stop-opacity="0"/>
<stop offset="0.195" stop-color="white"/>
<stop offset="0.785" stop-color="white"/>
<stop offset="1" stop-color="white" stop-opacity="0"/>
</linearGradient>
<linearGradient id="paint11_linear_237_1752" x1="-0.478337" y1="198.036" x2="1527.45" y2="293.168" gradientUnits="userSpaceOnUse">
<stop stop-color="white" stop-opacity="0"/>
<stop offset="0.195" stop-color="white"/>
<stop offset="0.785" stop-color="white"/>
<stop offset="1" stop-color="white" stop-opacity="0"/>
</linearGradient>
<linearGradient id="paint12_linear_237_1752" x1="-0.478337" y1="198.036" x2="1527.45" y2="293.168" gradientUnits="userSpaceOnUse">
<stop stop-color="white" stop-opacity="0"/>
<stop offset="0.195" stop-color="white"/>
<stop offset="0.785" stop-color="white"/>
<stop offset="1" stop-color="white" stop-opacity="0"/>
</linearGradient>
</defs>
</svg>
