<svg width="32" height="32" viewBox="0 0 32 32" fill="none" xmlns="http://www.w3.org/2000/svg">
<g filter="url(#filter0_ii_269_1430)">
<path d="M28.2166 22.9265L28.2166 22.9265C28.0338 23.2593 28.1553 23.6773 28.4881 23.8601L28.4881 23.8601C29.0608 24.1747 29.5238 24.5129 29.8472 24.8562C30.1663 25.1951 30.375 25.567 30.375 25.9452C30.375 26.4093 30.0544 26.9197 29.4373 27.4137C28.811 27.9149 27.8379 28.4343 26.4296 28.9128C23.6461 29.8586 19.9418 30.3751 16 30.3751C12.0582 30.3751 8.3539 29.8586 5.57038 28.9128C4.1621 28.4344 3.18901 27.915 2.56271 27.4137C1.94558 26.9198 1.625 26.4093 1.625 25.9452C1.625 25.567 1.83374 25.1951 2.15284 24.8562C2.47615 24.5129 2.93918 24.1747 3.51187 23.86L3.5119 23.86C3.84465 23.6773 3.96623 23.2593 3.7834 22.9265L28.2166 22.9265ZM28.2166 22.9265C28.3993 22.5938 28.8172 22.4722 29.1502 22.655M28.2166 22.9265L29.1502 22.655M29.1502 22.655C29.7598 22.9899 30.4157 23.436 30.9165 23.9915C31.4159 24.5454 31.75 25.1947 31.75 25.9452C31.75 26.518 31.5555 27.2292 30.8582 27.9734C30.1556 28.7233 28.9351 29.5138 26.872 30.2147C23.9653 31.2023 20.1043 31.7501 16 31.7501C11.8957 31.7501 8.03472 31.2023 5.12805 30.2147C3.06489 29.5138 1.84443 28.7233 1.14179 27.9734C0.444512 27.2292 0.25 26.518 0.25 25.9452C0.25 25.1947 0.584081 24.5454 1.08347 23.9915C1.58432 23.436 2.24023 22.9898 2.84982 22.6549C3.18274 22.4721 3.60056 22.5937 3.78339 22.9265L29.1502 22.655Z" fill="url(#paint0_linear_269_1430)" stroke="url(#paint1_linear_269_1430)" stroke-width="0.5"/>
<path d="M20.7853 22.8204C21.0355 22.4003 21.2834 21.9788 21.529 21.556C22.0556 21.6567 22.5516 21.7722 23.01 21.9017C24.1589 22.2263 24.9997 22.6171 25.5486 23.0597C26.0913 23.4974 26.3368 23.9742 26.3368 24.4908C26.3368 25.0073 26.0913 25.4841 25.5486 25.9218C24.9997 26.3645 24.1589 26.7553 23.01 27.0799L23.078 27.3205L23.01 27.0799C21.1351 27.6096 18.6455 27.9042 16 27.9042C13.3544 27.9042 10.8648 27.6095 8.98992 27.0799C7.841 26.7553 7.00022 26.3644 6.45134 25.9218C5.90857 25.4841 5.66309 25.0073 5.66309 24.4908C5.66309 23.9743 5.90857 23.4974 6.45134 23.0597C7.00022 22.6171 7.84099 22.2263 8.98992 21.9017L8.98993 21.9017C9.44828 21.7722 9.94429 21.6568 10.4709 21.5561C10.7106 21.9687 10.9585 22.3902 11.2146 22.8204C10.6823 22.909 10.1778 23.0129 9.71045 23.1319L9.71044 23.1319C8.83977 23.3537 8.23605 23.5917 7.82847 23.8035C7.42995 24.0106 7.19685 24.204 7.09736 24.3501L7.00145 24.4908L7.09736 24.6316C7.19685 24.7776 7.42992 24.9711 7.82843 25.1782C8.236 25.39 8.8397 25.628 9.71037 25.8497C11.3547 26.2686 13.4591 26.5054 15.6679 26.5271C15.7771 26.535 15.8878 26.5395 16 26.5395H16.0003C16.111 26.5394 16.2217 26.5352 16.3321 26.5271C18.5409 26.5054 20.6452 26.2685 22.2895 25.8497C23.1601 25.628 23.7638 25.39 24.1714 25.1782C24.5699 24.9711 24.803 24.7776 24.9025 24.6316L24.9984 24.4908L24.9025 24.3501C24.803 24.204 24.5699 24.0106 24.1714 23.8035C23.7638 23.5917 23.1601 23.3537 22.2894 23.1319C21.8221 23.0129 21.3176 22.909 20.7853 22.8204Z" fill="url(#paint2_linear_269_1430)" stroke="url(#paint3_linear_269_1430)" stroke-width="0.5"/>
<path d="M17.8148 23.1467C17.4249 23.7847 16.7476 24.1646 16.0002 24.1646C15.2528 24.1646 14.5754 23.7847 14.1855 23.1467C12.6619 20.654 10.9948 17.7694 9.70934 15.1371C9.06656 13.8208 8.52124 12.5717 8.1371 11.4689C7.75131 10.3614 7.53516 9.42077 7.53516 8.71494C7.53516 4.04757 11.3327 0.25 16.0002 0.25C20.6676 0.25 24.4652 4.04757 24.4652 8.71494C24.4652 9.42077 24.249 10.3614 23.8632 11.4689C23.4791 12.5717 22.9338 13.8208 22.291 15.1371C21.0056 17.7694 19.3384 20.654 17.8148 23.1467ZM16.0002 4.36375C13.9306 4.36375 12.2472 6.04705 12.2472 8.11656C12.2472 10.1862 13.9306 11.8694 16.0002 11.8694C18.0697 11.8694 19.7531 10.1861 19.7531 8.11656C19.7531 6.04705 18.0697 4.36375 16.0002 4.36375Z" fill="url(#paint4_linear_269_1430)" stroke="url(#paint5_linear_269_1430)" stroke-width="0.5"/>
</g>
<defs>
<filter id="filter0_ii_269_1430" x="0" y="-4" width="36" height="40" filterUnits="userSpaceOnUse" color-interpolation-filters="sRGB">
<feFlood flood-opacity="0" result="BackgroundImageFix"/>
<feBlend mode="normal" in="SourceGraphic" in2="BackgroundImageFix" result="shape"/>
<feColorMatrix in="SourceAlpha" type="matrix" values="0 0 0 0 0 0 0 0 0 0 0 0 0 0 0 0 0 0 127 0" result="hardAlpha"/>
<feOffset dy="4"/>
<feGaussianBlur stdDeviation="2"/>
<feComposite in2="hardAlpha" operator="arithmetic" k2="-1" k3="1"/>
<feColorMatrix type="matrix" values="0 0 0 0 0 0 0 0 0 0 0 0 0 0 0 0 0 0 0.15 0"/>
<feBlend mode="normal" in2="shape" result="effect1_innerShadow_269_1430"/>
<feColorMatrix in="SourceAlpha" type="matrix" values="0 0 0 0 0 0 0 0 0 0 0 0 0 0 0 0 0 0 127 0" result="hardAlpha"/>
<feOffset dx="4" dy="-4"/>
<feGaussianBlur stdDeviation="2"/>
<feComposite in2="hardAlpha" operator="arithmetic" k2="-1" k3="1"/>
<feColorMatrix type="matrix" values="0 0 0 0 1 0 0 0 0 1 0 0 0 0 1 0 0 0 0.25 0"/>
<feBlend mode="normal" in2="effect1_innerShadow_269_1430" result="effect2_innerShadow_269_1430"/>
</filter>
<linearGradient id="paint0_linear_269_1430" x1="1.2973" y1="23.8091" x2="7.60317" y2="40.2312" gradientUnits="userSpaceOnUse">
<stop stop-color="#FAF9F7"/>
<stop offset="0.505" stop-color="#2D6296"/>
<stop offset="0.858337" stop-color="#2185A5"/>
</linearGradient>
<linearGradient id="paint1_linear_269_1430" x1="1.2973" y1="23.8091" x2="7.60317" y2="40.2312" gradientUnits="userSpaceOnUse">
<stop stop-color="#FAF9F7"/>
<stop offset="0.5" stop-color="#579DE2"/>
<stop offset="1" stop-color="#2185A5"/>
</linearGradient>
<linearGradient id="paint2_linear_269_1430" x1="6.27148" y1="22.3357" x2="10.9879" y2="33.7769" gradientUnits="userSpaceOnUse">
<stop stop-color="#FAF9F7"/>
<stop offset="0.505" stop-color="#2D6296"/>
<stop offset="0.858337" stop-color="#2185A5"/>
</linearGradient>
<linearGradient id="paint3_linear_269_1430" x1="6.27148" y1="22.3357" x2="10.9879" y2="33.7769" gradientUnits="userSpaceOnUse">
<stop stop-color="#FAF9F7"/>
<stop offset="0.5" stop-color="#579DE2"/>
<stop offset="1" stop-color="#2185A5"/>
</linearGradient>
<linearGradient id="paint4_linear_269_1430" x1="7.99178" y1="3.7561" x2="28.2978" y2="15.1769" gradientUnits="userSpaceOnUse">
<stop stop-color="#FAF9F7"/>
<stop offset="0.505" stop-color="#2D6296"/>
<stop offset="0.858337" stop-color="#2185A5"/>
</linearGradient>
<linearGradient id="paint5_linear_269_1430" x1="7.99178" y1="3.7561" x2="28.2978" y2="15.1769" gradientUnits="userSpaceOnUse">
<stop stop-color="#FAF9F7"/>
<stop offset="0.5" stop-color="#579DE2"/>
<stop offset="1" stop-color="#2185A5"/>
</linearGradient>
</defs>
</svg>
