<svg width="123" height="44" viewBox="0 0 123 44" fill="none" xmlns="http://www.w3.org/2000/svg">
<g>
<path d="M15.8627 20.3998H24.7766V30.1431C24.7766 33.2109 22.3004 35.7003 19.2435 35.7003H5.5331C2.47622 35.7003 0 33.2133 0 30.1431V16.7536C0 13.6834 2.47862 11.1964 5.5331 11.1964H24.779L20.9951 16.9175H9.86649C8.24447 16.9175 6.93198 18.2381 6.93198 19.8648V27.0969C6.93198 28.726 8.24447 30.0443 9.86649 30.0443H15.8483C17.0912 30.0443 18.0966 29.0345 18.0966 27.7862V25.9113H12.2155L15.8603 20.3998H15.8627Z" fill="#000002"/>
<path d="M63.597 20.3998H72.5109V30.1431C72.5109 33.2109 70.0347 35.7003 66.9778 35.7003H53.265C50.2082 35.7003 47.7319 33.2133 47.7319 30.1431V16.7536C47.7319 13.6834 50.2106 11.1964 53.265 11.1964H72.5085L68.7246 16.9175H57.5984C55.9764 16.9175 54.6639 18.2381 54.6639 19.8648V27.0969C54.6639 28.726 55.9764 30.0443 57.5984 30.0443H63.5802C64.8231 30.0443 65.8285 29.0345 65.8285 27.7862V25.9113H59.9475L63.5922 20.3998H63.597Z" fill="#000002"/>
<path d="M47.7321 11.1964V16.9175H39.7228V35.7003H32.7884V16.9175H24.7791V11.1964H47.7321Z" fill="#000002"/>
<path d="M4.80851 39.3633V38.9633H1.44209V41.5515H4.80851V40.8503H3.06651V39.8574H5.88585V41.5588C5.88585 41.7491 5.86906 41.9106 5.83307 42.0432C5.79707 42.1733 5.73949 42.2793 5.66031 42.3613C5.57873 42.4432 5.47555 42.501 5.34358 42.5348C5.21401 42.5709 5.05325 42.5878 4.86129 42.5878H1.37971C1.19015 42.5878 1.02939 42.5709 0.90222 42.5348C0.77505 42.4986 0.669475 42.4408 0.590293 42.3613C0.508712 42.2817 0.451126 42.1757 0.417534 42.0432C0.381542 41.913 0.364746 41.7516 0.364746 41.5588V38.9488C0.364746 38.5705 0.439129 38.3054 0.590293 38.1512C0.741458 37.9969 1.0054 37.9198 1.38211 37.9198H4.86369C5.05325 37.9198 5.21401 37.9391 5.34598 37.9752C5.47555 38.0138 5.58112 38.0716 5.66271 38.1488C5.74189 38.2283 5.80187 38.3319 5.83546 38.4669C5.87146 38.5994 5.88825 38.7609 5.88825 38.9464V39.1344L4.8109 39.3609L4.80851 39.3633Z" fill="#000002"/>
<path d="M11.402 38.9633H8.0356V41.5515H11.402V38.9633ZM12.4794 41.5588C12.4794 41.7491 12.4626 41.9106 12.4266 42.0407C12.3906 42.1709 12.333 42.2769 12.2538 42.3589C12.1722 42.4408 12.0691 42.4986 11.9371 42.5324C11.8075 42.5685 11.6468 42.5854 11.4548 42.5854H7.97321C7.78366 42.5854 7.6229 42.5685 7.49573 42.5324C7.36856 42.4962 7.26298 42.4384 7.1838 42.3589C7.10222 42.2769 7.04463 42.1733 7.01104 42.0407C6.97505 41.9106 6.95825 41.7491 6.95825 41.5588V38.9488C6.95825 38.5705 7.03263 38.3054 7.1838 38.1512C7.33496 37.9969 7.5989 37.9198 7.97561 37.9198H11.4572C11.6468 37.9198 11.8075 37.9391 11.9395 37.9752C12.0691 38.0138 12.1746 38.0716 12.2562 38.1488C12.3378 38.2283 12.3954 38.3319 12.429 38.4669C12.465 38.5994 12.4818 38.7609 12.4818 38.9464V41.5564L12.4794 41.5588Z" fill="#000002"/>
<path d="M17.9982 38.9633H14.6318V41.5515H17.9982V38.9633ZM19.0756 41.5588C19.0756 41.7491 19.0588 41.9106 19.0228 42.0407C18.9868 42.1709 18.9292 42.2769 18.85 42.3589C18.7685 42.4408 18.6653 42.4986 18.5333 42.5324C18.4038 42.5685 18.243 42.5854 18.0534 42.5854H14.5718C14.3823 42.5854 14.2215 42.5685 14.0944 42.5324C13.9672 42.4962 13.8616 42.4384 13.7824 42.3589C13.7009 42.2769 13.6433 42.1733 13.6097 42.0407C13.5737 41.9106 13.5569 41.7491 13.5569 41.5588V38.9488C13.5569 38.5705 13.6313 38.3054 13.7824 38.1512C13.9336 37.9969 14.1975 37.9198 14.5742 37.9198H18.0558C18.2454 37.9198 18.4062 37.9391 18.5357 37.9752C18.6653 38.0138 18.7709 38.0716 18.8524 38.1488C18.9316 38.2283 18.9916 38.3319 19.0252 38.4669C19.0612 38.5994 19.078 38.7609 19.078 38.9464V41.5564L19.0756 41.5588Z" fill="#000002"/>
<path d="M23.848 41.5515C24.1575 41.5515 24.3758 41.4865 24.4982 41.3539C24.6206 41.2238 24.683 40.9973 24.683 40.6767V39.8357C24.683 39.5104 24.6206 39.2838 24.4982 39.1537C24.3734 39.026 24.1575 38.9609 23.848 38.9609H21.3166V41.5491H23.848V41.5515ZM20.2392 37.9198H23.776C23.9439 37.9198 24.0927 37.9246 24.2199 37.9343C24.3471 37.9439 24.4646 37.9584 24.5678 37.9801C24.671 38.0018 24.767 38.0307 24.8509 38.0644C24.9349 38.0981 25.0141 38.1415 25.0933 38.1945C25.3308 38.3415 25.5036 38.5536 25.6068 38.8308C25.7099 39.1055 25.7627 39.4718 25.7627 39.9249V40.5876C25.7627 40.8575 25.7483 41.084 25.7171 41.2672C25.6859 41.4503 25.6356 41.619 25.5612 41.7757C25.4556 42.0046 25.2972 42.1853 25.0909 42.3155C25.0141 42.3685 24.9325 42.4119 24.8485 42.4456C24.7646 42.4794 24.671 42.5083 24.5654 42.53C24.4598 42.5516 24.3447 42.5661 24.2175 42.5757C24.0903 42.5854 23.9416 42.5902 23.7736 42.5902H20.2368V37.9246L20.2392 37.9198Z" fill="#000002"/>
<path d="M31.5814 42.5878H30.4969V38.9633H28.3638V37.9222H33.7121V38.9633H31.5814V42.5878Z" fill="#000002"/>
<path d="M38.811 38.9633H35.4446V41.5515H38.811V38.9633ZM39.8883 41.5588C39.8883 41.7491 39.8715 41.9106 39.8355 42.0407C39.7996 42.1709 39.742 42.2769 39.6628 42.3589C39.5812 42.4408 39.478 42.4986 39.3461 42.5324C39.2165 42.5685 39.0557 42.5854 38.8662 42.5854H35.3846C35.195 42.5854 35.0343 42.5685 34.9071 42.5324C34.7799 42.4962 34.6744 42.4384 34.5952 42.3589C34.516 42.2769 34.456 42.1733 34.4224 42.0407C34.3864 41.9106 34.3696 41.7491 34.3696 41.5588V38.9488C34.3696 38.5705 34.444 38.3054 34.5952 38.1512C34.7463 37.9969 35.0103 37.9198 35.387 37.9198H38.8686C39.0581 37.9198 39.2189 37.9391 39.3485 37.9752C39.478 38.0138 39.5836 38.0716 39.6652 38.1488C39.7444 38.2283 39.8044 38.3319 39.8379 38.4669C39.8739 38.5994 39.8907 38.7609 39.8907 38.9464V41.5564L39.8883 41.5588Z" fill="#000002"/>
<path d="M47.3554 39.3633V38.9633H43.989V41.5515H47.3554V40.8503H45.6134V39.8574H48.4327V41.5588C48.4327 41.7491 48.4159 41.9106 48.3799 42.0432C48.344 42.1733 48.2864 42.2793 48.2072 42.3613C48.128 42.4432 48.0224 42.501 47.8905 42.5348C47.7609 42.5709 47.6001 42.5878 47.4082 42.5878H43.9266C43.737 42.5878 43.5763 42.5709 43.4491 42.5348C43.3219 42.4986 43.2164 42.4408 43.1372 42.3613C43.058 42.2817 42.998 42.1757 42.9644 42.0432C42.9284 41.913 42.9116 41.7516 42.9116 41.5588V38.9488C42.9116 38.5705 42.986 38.3054 43.1372 38.1512C43.2883 37.9969 43.5523 37.9198 43.929 37.9198H47.4106C47.6001 37.9198 47.7609 37.9391 47.8929 37.9752C48.0224 38.0138 48.128 38.0716 48.2096 38.1488C48.2912 38.2283 48.3488 38.3319 48.3823 38.4669C48.4183 38.5994 48.4351 38.7609 48.4351 38.9464V39.1344L47.3578 39.3609L47.3554 39.3633Z" fill="#000002"/>
<path d="M53.0852 39.8381C53.2484 39.8381 53.3636 39.8116 53.4331 39.7586C53.5027 39.7056 53.5363 39.6188 53.5363 39.4983V39.3007C53.5363 39.1802 53.5027 39.0934 53.4331 39.0428C53.3636 38.9922 53.2484 38.9657 53.0852 38.9657H50.6738V39.8405H53.0852V39.8381ZM49.5964 42.5878V37.9222H53.5795C53.7571 37.9222 53.8938 37.9319 53.9946 37.9487C54.0954 37.968 54.189 38.0018 54.2777 38.0548C54.4097 38.1295 54.4985 38.2331 54.5489 38.3632C54.5969 38.4934 54.6209 38.6886 54.6209 38.9513V39.8044C54.6209 39.9634 54.6137 40.0863 54.6017 40.1707C54.5897 40.255 54.5657 40.3394 54.5273 40.4189C54.4625 40.5683 54.3569 40.6743 54.213 40.7346C54.069 40.7948 53.8578 40.8262 53.5795 40.8262H53.0252L55.1055 42.5878H53.5507L51.6432 40.8262H50.6738V42.5878H49.5964Z" fill="#000002"/>
<path d="M55.7988 37.9222H60.5497V38.9633H56.8762V39.6622H59.0237V40.6502H56.8762V41.5515H60.5977V42.5878H55.7988V37.9222Z" fill="#000002"/>
<path d="M64.9241 40.5707L63.9883 38.8283L63.043 40.5707H64.9241ZM63.5036 37.9198H64.5474L67.2108 42.5854H65.9967L65.4568 41.5636H62.5079L61.956 42.5854H60.8787L63.5036 37.9198Z" fill="#000002"/>
<path d="M70.3778 42.5878H69.2933V38.9633H67.1626V37.9222H72.5109V38.9633H70.3778V42.5878Z" fill="#000002"/>
<path d="M87.6133 13.8304L87.4621 14.0835L83.0327 21.371C91.5315 27.6319 92.8056 30.9648 97.0838 38.8187C97.1342 32.3481 96.9903 27.2319 96.352 24.3786C95.4402 20.7252 93.2111 17.9682 87.6564 13.8593L87.6133 13.828V13.8304Z" fill="#000002"/>
<path d="M118.42 13.8304L118.571 14.0835L123 21.371C114.501 27.6319 113.227 30.9648 108.949 38.8187C108.899 32.3481 109.043 27.2319 109.681 24.3786C110.593 20.7252 112.822 17.9682 118.377 13.8593L118.42 13.828V13.8304Z" fill="#000002"/>
<path d="M103.018 3.74981C100.993 4.63906 98.9675 5.53073 96.94 6.41998L87.9877 0C87.9685 3.85343 87.9301 7.70687 87.9805 11.5627C94.9101 16.5343 97.4127 19.7467 98.3581 23.9159C99.3155 28.1404 99.1619 33.6953 99.4186 42.354C100.422 43.1276 101.65 43.6409 103.015 44C104.381 43.6433 105.609 43.1276 106.612 42.354C106.871 33.6953 106.715 28.138 107.673 23.9159C108.618 19.7467 111.121 16.5343 118.05 11.5627C118.101 7.70446 118.062 3.85343 118.043 0L109.091 6.41998C107.066 5.53073 105.041 4.63906 103.013 3.74981H103.018Z" fill="#000002"/>
<path d="M103.017 8.04184C104.592 8.04184 106.017 8.68287 107.049 9.71913C108.08 10.7554 108.719 12.1869 108.719 13.7678C108.719 15.3487 108.08 16.7801 107.049 17.8164C106.017 18.8527 104.592 19.4937 103.017 19.4937C101.443 19.4937 100.018 18.8527 98.9864 17.8164C97.9547 16.7801 97.3164 15.3487 97.3164 13.7678C97.3164 12.1869 97.9547 10.7554 98.9864 9.71913C100.018 8.68287 101.443 8.04184 103.017 8.04184ZM104.407 9.54803V10.806C105.513 11.3289 106.278 12.4592 106.278 13.7702C106.278 15.5776 104.819 17.0452 103.017 17.0452C101.215 17.0452 99.7566 15.58 99.7566 13.7702C99.7566 12.4616 100.522 11.3314 101.628 10.806V9.54803C99.8646 10.1336 98.5929 11.8013 98.5929 13.7678C98.5929 16.221 100.575 18.2116 103.017 18.2116C105.46 18.2116 107.442 16.221 107.442 13.7678C107.442 11.8013 106.17 10.1336 104.407 9.54803ZM103.62 8.41056V13.1653C103.62 13.4979 103.349 13.7702 103.017 13.7702C102.686 13.7702 102.415 13.4979 102.415 13.1653V8.41056C101.172 8.55033 100.059 9.11425 99.2216 9.9553C98.2498 10.9313 97.6499 12.2784 97.6499 13.7678C97.6499 15.2571 98.2498 16.6042 99.2216 17.5802C100.193 18.5562 101.535 19.1587 103.017 19.1587C104.5 19.1587 105.842 18.5562 106.813 17.5802C107.785 16.6042 108.385 15.2571 108.385 13.7678C108.385 12.2784 107.785 10.9313 106.813 9.9553C105.976 9.11425 104.86 8.54792 103.62 8.41056Z" fill="#00AEEF"/>
</g>
<defs>
<clipPath id="clip0_312_357">
<rect width="123" height="44" fill="white"/>
</clipPath>
</defs>
</svg>