<svg width="218" height="223" viewBox="0 0 218 223" fill="none" xmlns="http://www.w3.org/2000/svg">
<g opacity="0.15">
<path d="M58.6575 52.2934C59.7648 54.9669 62.3768 56.713 65.2727 56.713H113.339V80.202L79.4446 125.789L88.0898 138.172L120.356 94.7714L146.798 132.234L156.768 121.525L127.667 80.2919V49.601C127.667 49.5868 127.672 49.5679 127.672 49.5537V16.5394C127.672 16.5252 127.667 16.5063 127.667 16.4921V7.45424C127.662 3.4984 124.459 0.294922 120.498 0.294922C116.547 0.294922 113.339 3.4984 113.339 7.45424V9.37538H65.2727C62.3768 9.37538 59.7648 11.1214 58.6575 13.7949C57.5503 16.4732 58.1607 19.5489 60.2049 21.6025L71.656 33.0395L60.2049 44.4859C58.1607 46.5395 57.5503 49.6199 58.6575 52.2934ZM86.8453 27.9764L82.5677 23.6988H113.339V42.3896H82.563L86.8453 38.1073C88.1844 36.7587 88.9415 34.9417 88.9415 33.0442C88.9415 31.1467 88.1891 29.3202 86.8453 27.9764Z" fill="url(#paint0_linear_138_977)"/>
<path d="M216.312 161.367L184.202 114.437C182.971 112.639 180.993 111.498 178.826 111.337C176.659 111.181 174.53 112.009 173.053 113.604L110.143 181.161L58.7408 107.49C57.4537 105.64 55.367 104.509 53.1146 104.429C50.8764 104.348 48.714 105.333 47.2944 107.083L1.59401 163.639C-0.894956 166.719 -0.417036 171.229 2.66341 173.713C5.7344 176.202 10.2486 175.724 12.7376 172.644L52.4522 123.503L119.252 219.229C120.643 221.226 122.867 222.295 125.129 222.295C126.544 222.295 127.968 221.874 129.217 221.008C132.459 218.741 133.254 214.275 130.996 211.033L118.537 193.175L177.44 129.919L204.497 169.459C205.883 171.489 208.131 172.577 210.416 172.577C211.807 172.577 213.217 172.175 214.452 171.328C217.708 169.09 218.546 164.628 216.312 161.367Z" fill="#00AEEF"/>
</g>
<defs>
<linearGradient id="paint0_linear_138_977" x1="58.1123" y1="70.5853" x2="156.768" y2="70.5853" gradientUnits="userSpaceOnUse">
<stop stop-color="#4280EB"/>
<stop offset="1" stop-color="#319CDF"/>
</linearGradient>
</defs>
</svg>
