<svg width="1382" height="388" viewBox="0 0 1382 388" fill="none" xmlns="http://www.w3.org/2000/svg">
    <g style="mix-blend-mode:lighten" opacity="0.4" filter="url(#filter0_ii_263_4647)">
    <path d="M83.8625 336.5V165.16H0.5V145.72H132.966V165.16H106.182V336.5H83.8625Z" fill="url(#paint0_linear_263_4647)"/>
    <path d="M144.02 253V145.72H166.34V192.088H208.1V145.72H230.42V253H208.1V211.528H166.34V253H144.02Z" fill="url(#paint1_linear_263_4647)"/>
    <path d="M292.112 254.728C283.664 254.728 276.128 252.952 269.504 249.4C262.88 245.848 257.648 241 253.808 234.856C250.064 228.616 248.192 221.56 248.192 213.688V145.72H270.512V212.248C270.512 216.472 271.424 220.312 273.248 223.768C275.168 227.128 277.76 229.768 281.024 231.688C284.288 233.608 287.984 234.568 292.112 234.568C296.336 234.568 300.032 233.608 303.2 231.688C306.464 229.768 309.008 227.128 310.832 223.768C312.752 220.312 313.712 216.472 313.712 212.248V145.72H333.296C334.352 145.72 335.552 145.336 336.896 144.568C338.336 143.8 339.056 141.832 339.056 138.664C339.056 137.128 338.768 135.4 338.192 133.48C337.616 131.464 336.944 129.544 336.176 127.72H354.32C355.28 129.736 356.048 131.752 356.624 133.768C357.296 135.688 357.632 137.944 357.632 140.536C357.632 147.448 355.808 152.536 352.16 155.8C348.608 158.968 343.568 160.552 337.04 160.552H336.032V213.688C336.032 221.56 334.112 228.616 330.272 234.856C326.528 241 321.344 245.848 314.72 249.4C308.096 252.952 300.56 254.728 292.112 254.728Z" fill="url(#paint2_linear_263_4647)"/>
    <path d="M407.403 254.728C399.339 254.728 391.851 253.336 384.939 250.552C378.027 247.768 371.979 243.88 366.795 238.888C361.707 233.8 357.723 227.896 354.843 221.176C351.963 214.456 350.523 207.16 350.523 199.288C350.523 191.416 351.915 184.12 354.699 177.4C357.579 170.68 361.563 164.824 366.651 159.832C371.835 154.84 377.883 150.952 384.795 148.168C391.707 145.384 399.243 143.992 407.403 143.992H436.203C436.779 143.992 437.595 143.944 438.651 143.848C439.707 143.656 440.667 143.08 441.531 142.12C442.491 141.16 442.971 139.432 442.971 136.936C442.971 135.4 442.683 133.672 442.107 131.752C441.531 129.736 440.859 127.816 440.091 125.992H458.236C459.195 128.008 459.964 130.024 460.539 132.04C461.211 133.96 461.547 136.216 461.547 138.808C461.547 145.72 460.444 150.808 458.236 154.072C456.027 157.24 453.147 158.824 449.595 158.824H436.923L441.964 154.648C446.572 157.912 450.556 161.848 453.915 166.456C457.276 171.064 459.819 176.152 461.547 181.72C463.371 187.192 464.283 193.048 464.283 199.288C464.283 207.16 462.844 214.456 459.964 221.176C457.083 227.896 453.051 233.8 447.867 238.888C442.779 243.88 436.779 247.768 429.867 250.552C422.956 253.336 415.467 254.728 407.403 254.728ZM407.403 234.568C412.299 234.568 416.811 233.704 420.939 231.976C425.163 230.248 428.859 227.848 432.027 224.776C435.195 221.608 437.643 217.864 439.371 213.544C441.099 209.224 441.964 204.472 441.964 199.288C441.964 194.104 441.099 189.4 439.371 185.176C437.643 180.856 435.195 177.112 432.027 173.944C428.859 170.776 425.163 168.376 420.939 166.744C416.811 165.016 412.299 164.152 407.403 164.152C402.507 164.152 397.947 165.016 393.723 166.744C389.595 168.376 385.947 170.776 382.779 173.944C379.611 177.112 377.163 180.856 375.435 185.176C373.707 189.4 372.843 194.104 372.843 199.288C372.843 204.472 373.707 209.224 375.435 213.544C377.163 217.864 379.611 221.608 382.779 224.776C385.947 227.848 389.595 230.248 393.723 231.976C397.947 233.704 402.507 234.568 407.403 234.568Z" fill="url(#paint3_linear_263_4647)"/>
    <path d="M480.113 253V145.72H497.249L554.849 221.608L545.633 223.768V0H567.953V253H550.673L494.081 176.536L502.433 174.376V253H480.113Z" fill="url(#paint4_linear_263_4647)"/>
    <path d="M638.54 254.728C630.86 254.728 623.708 253.336 617.084 250.552C610.46 247.768 604.652 243.88 599.66 238.888C594.668 233.896 590.78 228.04 587.996 221.32C585.212 214.6 583.82 207.256 583.82 199.288C583.82 191.32 585.164 183.976 587.852 177.256C590.54 170.44 594.332 164.584 599.228 159.688C604.124 154.696 609.836 150.856 616.364 148.168C622.988 145.384 630.188 143.992 637.964 143.992C645.74 143.992 652.7 145.288 658.844 147.88C665.084 150.472 670.364 153.928 674.684 158.248C679.004 162.568 682.076 167.368 683.9 172.648L664.172 182.152C662.348 176.968 659.132 172.696 654.524 169.336C650.012 165.88 644.492 164.152 637.964 164.152C631.628 164.152 626.06 165.64 621.26 168.616C616.46 171.592 612.716 175.72 610.028 181C607.436 186.184 606.14 192.28 606.14 199.288C606.14 206.296 607.532 212.44 610.316 217.72C613.1 223 616.892 227.128 621.692 230.104C626.588 233.08 632.204 234.568 638.54 234.568C643.436 234.568 647.996 233.656 652.22 231.832C656.54 229.912 659.996 227.176 662.588 223.624C665.276 220.072 666.62 215.8 666.62 210.808V201.88L676.844 210.52H637.964V191.8H688.94V203.176C688.94 211.912 687.5 219.544 684.62 226.072C681.74 232.504 677.852 237.88 672.956 242.2C668.156 246.424 662.732 249.592 656.684 251.704C650.732 253.72 644.684 254.728 638.54 254.728Z" fill="url(#paint5_linear_263_4647)"/>
    <path d="M728.598 253V145.72H750.918V192.088H792.678V145.72H814.998V253H792.678V211.528H750.918V253H728.598Z" fill="url(#paint6_linear_263_4647)"/>
    <path d="M834.066 388V145.72H856.386V388H834.066Z" fill="url(#paint7_linear_263_4647)"/>
    <path d="M875.41 253V145.72H947.554V165.16H897.73V189.496H944.674V208.936H897.73V233.56H947.554V253H875.41ZM900.754 287.56V265.96H922.354V287.56H900.754ZM881.89 132.184L898.594 107.704H924.37L941.218 132.184H920.482L911.554 119.224L902.626 132.184H881.89Z" fill="url(#paint8_linear_263_4647)"/>
    <path d="M1002.83 254.728C994.383 254.728 986.847 252.952 980.223 249.4C973.599 245.848 968.367 241 964.527 234.856C960.783 228.616 958.911 221.56 958.911 213.688V145.72H981.231V212.248C981.231 216.472 982.143 220.312 983.967 223.768C985.887 227.128 988.479 229.768 991.743 231.688C995.007 233.608 998.703 234.568 1002.83 234.568C1007.06 234.568 1010.75 233.608 1013.92 231.688C1017.18 229.768 1019.73 227.128 1021.55 223.768C1023.47 220.312 1024.43 216.472 1024.43 212.248V145.72H1046.75V213.688C1046.75 221.56 1044.83 228.616 1040.99 234.856C1037.25 241 1032.06 245.848 1025.44 249.4C1018.82 252.952 1011.28 254.728 1002.83 254.728Z" fill="url(#paint9_linear_263_4647)"/>
    <path d="M1141.84 254.728C1134.16 254.728 1127.01 253.336 1120.38 250.552C1113.76 247.768 1107.95 243.88 1102.96 238.888C1097.97 233.896 1094.08 228.04 1091.29 221.32C1088.51 214.6 1087.12 207.256 1087.12 199.288C1087.12 191.32 1088.46 183.976 1091.15 177.256C1093.84 170.44 1097.63 164.584 1102.53 159.688C1107.42 154.696 1113.13 150.856 1119.66 148.168C1126.29 145.384 1133.49 143.992 1141.26 143.992C1149.04 143.992 1156 145.288 1162.14 147.88C1168.38 150.472 1173.66 153.928 1177.98 158.248C1182.3 162.568 1185.37 167.368 1187.2 172.648L1167.47 182.152C1165.65 176.968 1162.43 172.696 1157.82 169.336C1153.31 165.88 1147.79 164.152 1141.26 164.152C1134.93 164.152 1129.36 165.64 1124.56 168.616C1119.76 171.592 1116.01 175.72 1113.33 181C1110.73 186.184 1109.44 192.28 1109.44 199.288C1109.44 206.296 1110.83 212.44 1113.61 217.72C1116.4 223 1120.19 227.128 1124.99 230.104C1129.89 233.08 1135.5 234.568 1141.84 234.568C1146.73 234.568 1151.29 233.656 1155.52 231.832C1159.84 229.912 1163.29 227.176 1165.89 223.624C1168.57 220.072 1169.92 215.8 1169.92 210.808V201.88L1180.14 210.52H1141.26V191.8H1192.24V203.176C1192.24 211.912 1190.8 219.544 1187.92 226.072C1185.04 232.504 1181.15 237.88 1176.25 242.2C1171.45 246.424 1166.03 249.592 1159.98 251.704C1154.03 253.72 1147.98 254.728 1141.84 254.728Z" fill="url(#paint10_linear_263_4647)"/>
    <path d="M1223.91 388V165.16H1196.69V145.72H1273.01V165.16H1246.23V388H1223.91Z" fill="url(#paint11_linear_263_4647)"/>
    <path d="M1331.26 254.728C1323.58 254.728 1316.43 253.336 1309.8 250.552C1303.18 247.768 1297.37 243.88 1292.38 238.888C1287.39 233.896 1283.5 228.04 1280.72 221.32C1277.93 214.6 1276.54 207.256 1276.54 199.288C1276.54 191.32 1277.88 183.976 1280.57 177.256C1283.26 170.44 1287.05 164.584 1291.95 159.688C1296.84 154.696 1302.56 150.856 1309.08 148.168C1315.71 145.384 1322.91 143.992 1330.68 143.992C1338.46 143.992 1345.42 145.288 1351.56 147.88C1357.8 150.472 1363.08 153.928 1367.4 158.248C1371.72 162.568 1374.8 167.368 1376.62 172.648L1356.89 182.152C1355.07 176.968 1351.85 172.696 1347.24 169.336C1342.73 165.88 1337.21 164.152 1330.68 164.152C1324.35 164.152 1318.78 165.64 1313.98 168.616C1309.18 171.592 1305.44 175.72 1302.75 181C1300.16 186.184 1298.86 192.28 1298.86 199.288C1298.86 206.296 1300.25 212.44 1303.04 217.72C1305.82 223 1309.61 227.128 1314.41 230.104C1319.31 233.08 1324.92 234.568 1331.26 234.568C1336.16 234.568 1340.72 233.656 1344.94 231.832C1349.26 229.912 1352.72 227.176 1355.31 223.624C1358 220.072 1359.34 215.8 1359.34 210.808V201.88L1369.56 210.52H1330.68V191.8H1381.66V203.176C1381.66 211.912 1380.22 219.544 1377.34 226.072C1374.46 232.504 1370.57 237.88 1365.68 242.2C1360.88 246.424 1355.45 249.592 1349.4 251.704C1343.45 253.72 1337.4 254.728 1331.26 254.728Z" fill="url(#paint12_linear_263_4647)"/>
    </g>
    <defs>
    <filter id="filter0_ii_263_4647" x="0.5" y="0" width="1381.16" height="392" filterUnits="userSpaceOnUse" color-interpolation-filters="sRGB">
    <feFlood flood-opacity="0" result="BackgroundImageFix"/>
    <feBlend mode="normal" in="SourceGraphic" in2="BackgroundImageFix" result="shape"/>
    <feColorMatrix in="SourceAlpha" type="matrix" values="0 0 0 0 0 0 0 0 0 0 0 0 0 0 0 0 0 0 127 0" result="hardAlpha"/>
    <feOffset dy="4"/>
    <feGaussianBlur stdDeviation="2"/>
    <feComposite in2="hardAlpha" operator="arithmetic" k2="-1" k3="1"/>
    <feColorMatrix type="matrix" values="0 0 0 0 0.301961 0 0 0 0 0.635294 0 0 0 0 0.721569 0 0 0 0.16 0"/>
    <feBlend mode="normal" in2="shape" result="effect1_innerShadow_263_4647"/>
    <feColorMatrix in="SourceAlpha" type="matrix" values="0 0 0 0 0 0 0 0 0 0 0 0 0 0 0 0 0 0 127 0" result="hardAlpha"/>
    <feOffset dy="4"/>
    <feGaussianBlur stdDeviation="2"/>
    <feComposite in2="hardAlpha" operator="arithmetic" k2="-1" k3="1"/>
    <feColorMatrix type="matrix" values="0 0 0 0 0 0 0 0 0 0 0 0 0 0 0 0 0 0 0.25 0"/>
    <feBlend mode="normal" in2="effect1_innerShadow_263_4647" result="effect2_innerShadow_263_4647"/>
    </filter>
    <linearGradient id="paint0_linear_263_4647" x1="0.999998" y1="158.5" x2="1465.5" y2="249.5" gradientUnits="userSpaceOnUse">
    <stop stop-color="white" stop-opacity="0"/>
    <stop offset="0.195" stop-color="white"/>
    <stop offset="0.785" stop-color="white"/>
    <stop offset="1" stop-color="white" stop-opacity="0"/>
    </linearGradient>
    <linearGradient id="paint1_linear_263_4647" x1="0.999998" y1="158.5" x2="1465.5" y2="249.5" gradientUnits="userSpaceOnUse">
    <stop stop-color="white" stop-opacity="0"/>
    <stop offset="0.195" stop-color="white"/>
    <stop offset="0.785" stop-color="white"/>
    <stop offset="1" stop-color="white" stop-opacity="0"/>
    </linearGradient>
    <linearGradient id="paint2_linear_263_4647" x1="0.999998" y1="158.5" x2="1465.5" y2="249.5" gradientUnits="userSpaceOnUse">
    <stop stop-color="white" stop-opacity="0"/>
    <stop offset="0.195" stop-color="white"/>
    <stop offset="0.785" stop-color="white"/>
    <stop offset="1" stop-color="white" stop-opacity="0"/>
    </linearGradient>
    <linearGradient id="paint3_linear_263_4647" x1="0.999998" y1="158.5" x2="1465.5" y2="249.5" gradientUnits="userSpaceOnUse">
    <stop stop-color="white" stop-opacity="0"/>
    <stop offset="0.195" stop-color="white"/>
    <stop offset="0.785" stop-color="white"/>
    <stop offset="1" stop-color="white" stop-opacity="0"/>
    </linearGradient>
    <linearGradient id="paint4_linear_263_4647" x1="0.999998" y1="158.5" x2="1465.5" y2="249.5" gradientUnits="userSpaceOnUse">
    <stop stop-color="white" stop-opacity="0"/>
    <stop offset="0.195" stop-color="white"/>
    <stop offset="0.785" stop-color="white"/>
    <stop offset="1" stop-color="white" stop-opacity="0"/>
    </linearGradient>
    <linearGradient id="paint5_linear_263_4647" x1="0.999998" y1="158.5" x2="1465.5" y2="249.5" gradientUnits="userSpaceOnUse">
    <stop stop-color="white" stop-opacity="0"/>
    <stop offset="0.195" stop-color="white"/>
    <stop offset="0.785" stop-color="white"/>
    <stop offset="1" stop-color="white" stop-opacity="0"/>
    </linearGradient>
    <linearGradient id="paint6_linear_263_4647" x1="0.999998" y1="158.5" x2="1465.5" y2="249.5" gradientUnits="userSpaceOnUse">
    <stop stop-color="white" stop-opacity="0"/>
    <stop offset="0.195" stop-color="white"/>
    <stop offset="0.785" stop-color="white"/>
    <stop offset="1" stop-color="white" stop-opacity="0"/>
    </linearGradient>
    <linearGradient id="paint7_linear_263_4647" x1="0.999998" y1="158.5" x2="1465.5" y2="249.5" gradientUnits="userSpaceOnUse">
    <stop stop-color="white" stop-opacity="0"/>
    <stop offset="0.195" stop-color="white"/>
    <stop offset="0.785" stop-color="white"/>
    <stop offset="1" stop-color="white" stop-opacity="0"/>
    </linearGradient>
    <linearGradient id="paint8_linear_263_4647" x1="0.999998" y1="158.5" x2="1465.5" y2="249.5" gradientUnits="userSpaceOnUse">
    <stop stop-color="white" stop-opacity="0"/>
    <stop offset="0.195" stop-color="white"/>
    <stop offset="0.785" stop-color="white"/>
    <stop offset="1" stop-color="white" stop-opacity="0"/>
    </linearGradient>
    <linearGradient id="paint9_linear_263_4647" x1="0.999998" y1="158.5" x2="1465.5" y2="249.5" gradientUnits="userSpaceOnUse">
    <stop stop-color="white" stop-opacity="0"/>
    <stop offset="0.195" stop-color="white"/>
    <stop offset="0.785" stop-color="white"/>
    <stop offset="1" stop-color="white" stop-opacity="0"/>
    </linearGradient>
    <linearGradient id="paint10_linear_263_4647" x1="0.999998" y1="158.5" x2="1465.5" y2="249.5" gradientUnits="userSpaceOnUse">
    <stop stop-color="white" stop-opacity="0"/>
    <stop offset="0.195" stop-color="white"/>
    <stop offset="0.785" stop-color="white"/>
    <stop offset="1" stop-color="white" stop-opacity="0"/>
    </linearGradient>
    <linearGradient id="paint11_linear_263_4647" x1="0.999998" y1="158.5" x2="1465.5" y2="249.5" gradientUnits="userSpaceOnUse">
    <stop stop-color="white" stop-opacity="0"/>
    <stop offset="0.195" stop-color="white"/>
    <stop offset="0.785" stop-color="white"/>
    <stop offset="1" stop-color="white" stop-opacity="0"/>
    </linearGradient>
    <linearGradient id="paint12_linear_263_4647" x1="0.999998" y1="158.5" x2="1465.5" y2="249.5" gradientUnits="userSpaceOnUse">
    <stop stop-color="white" stop-opacity="0"/>
    <stop offset="0.195" stop-color="white"/>
    <stop offset="0.785" stop-color="white"/>
    <stop offset="1" stop-color="white" stop-opacity="0"/>
    </linearGradient>
    </defs>
    </svg>