<svg width="268" height="237" viewBox="0 0 268 237" fill="none" xmlns="http://www.w3.org/2000/svg">
<g opacity="0.15">
<path d="M134.008 50.5601C103.625 50.5601 71.0128 64.6957 39.7033 91.4375C16.422 111.31 2.08043 130.966 1.48308 131.795C-0.494361 134.524 -0.494361 138.216 1.48308 140.94C2.08043 141.764 16.4169 161.415 39.7033 181.298C71.0128 208.04 103.625 222.165 134.008 222.165C149.534 222.165 165.642 218.473 181.868 211.289L178.48 207.901C176.42 205.841 175.277 203.096 175.277 200.176C175.277 199.09 175.431 198.034 175.735 197.025C162.691 202.833 148.612 206.577 134.003 206.577C78.6445 206.577 30.81 152.615 17.6682 136.362C30.8203 120.11 78.6445 66.1479 134.003 66.1479C189.361 66.1479 237.195 120.116 250.337 136.373C243.416 144.947 226.875 163.985 204.665 180.077C204.969 180.319 205.263 180.582 205.536 180.855L215.881 191.2C220.042 188.126 224.187 184.825 228.307 181.303C251.583 161.42 265.925 141.764 266.517 140.946C268.494 138.216 268.494 134.524 266.517 131.8C265.92 130.971 251.583 111.315 228.307 91.4426C196.997 64.6957 164.385 50.5601 134.008 50.5601Z" fill="#00AEEF"/>
<path d="M134.008 156.029C124.306 156.029 116.139 149.093 114.594 139.53C114.125 136.631 111.396 134.663 108.502 135.132C105.603 135.601 103.636 138.33 104.104 141.224C106.488 155.957 119.064 166.653 134.008 166.653C136.943 166.653 139.322 164.274 139.322 161.338C139.322 158.403 136.943 156.029 134.008 156.029Z" fill="#00AEEF"/>
<path d="M108.805 132.16C109.444 132.413 110.103 132.531 110.752 132.531C112.874 132.531 114.872 131.254 115.696 129.163L115.824 128.844C116.942 126.13 115.649 123.025 112.941 121.907C110.227 120.79 107.122 122.082 106.004 124.791C105.937 124.951 105.875 125.11 105.814 125.27C104.732 127.999 106.076 131.084 108.805 132.16Z" fill="#00AEEF"/>
<path d="M134.008 147.589C140.208 147.589 145.234 142.563 145.234 136.363C145.234 130.163 140.208 125.137 134.008 125.137C127.808 125.137 122.782 130.163 122.782 136.363C122.782 142.563 127.808 147.589 134.008 147.589Z" fill="url(#paint0_linear_138_1017)"/>
<path d="M200.529 185.861C199.025 184.357 196.595 184.357 195.091 185.861L193.551 187.401L176.274 170.124C183.69 160.86 188.139 149.124 188.139 136.363C188.139 106.511 163.854 82.2305 134.006 82.2305C104.159 82.2305 79.874 106.516 79.874 136.363C79.874 166.21 104.159 190.495 134.006 190.495C146.762 190.495 158.498 186.051 167.762 178.636L185.039 195.913L183.499 197.453C181.996 198.956 181.996 201.387 183.499 202.89L216.029 235.42C217.533 236.924 219.963 236.924 221.467 235.42L233.064 223.824C234.568 222.32 234.568 219.889 233.064 218.386L200.529 185.861ZM134.006 178.456C110.797 178.456 91.9189 159.572 91.9189 136.368C91.9189 113.164 110.802 94.2805 134.006 94.2805C157.211 94.2805 176.094 113.164 176.094 136.368C176.094 159.572 157.211 178.456 134.006 178.456Z" fill="#00AEEF"/>
<path d="M134.338 40.1476C138.644 40.1476 142.13 36.6562 142.13 32.3563V8.08625C142.13 3.78119 138.638 0.294922 134.338 0.294922C130.033 0.294922 126.542 3.78634 126.542 8.08625V32.3511C126.542 36.6562 130.033 40.1476 134.338 40.1476Z" fill="url(#paint1_linear_138_1017)"/>
<path d="M77.7891 43.531C79.2155 46.08 81.8676 47.5168 84.5968 47.5168C85.8842 47.5168 87.1922 47.1975 88.3972 46.5229C92.1513 44.4219 93.4954 39.6688 91.3892 35.9148L82.7173 20.4248C80.6163 16.6707 75.8631 15.3267 72.1091 17.4329C68.355 19.5339 67.011 24.287 69.1172 28.041L77.7891 43.531Z" fill="url(#paint2_linear_138_1017)"/>
<path d="M180.178 46.693C181.383 47.3676 182.691 47.6869 183.978 47.6869C186.708 47.6869 189.36 46.2502 190.786 43.696L199.551 28.0361C201.652 24.282 200.313 19.5289 196.559 17.4279C192.805 15.3269 188.052 16.6658 185.951 20.4198L177.186 36.0797C175.085 39.8441 176.424 44.592 180.178 46.693Z" fill="url(#paint3_linear_138_1017)"/>
</g>
<defs>
<linearGradient id="paint0_linear_138_1017" x1="122.782" y1="136.583" x2="145.234" y2="136.583" gradientUnits="userSpaceOnUse">
<stop stop-color="#4280EB"/>
<stop offset="1" stop-color="#319CDF"/>
</linearGradient>
<linearGradient id="paint1_linear_138_1017" x1="126.542" y1="20.612" x2="142.13" y2="20.612" gradientUnits="userSpaceOnUse">
<stop stop-color="#4280EB"/>
<stop offset="1" stop-color="#319CDF"/>
</linearGradient>
<linearGradient id="paint2_linear_138_1017" x1="68.1211" y1="32.2815" x2="92.3853" y2="32.2815" gradientUnits="userSpaceOnUse">
<stop stop-color="#4280EB"/>
<stop offset="1" stop-color="#319CDF"/>
</linearGradient>
<linearGradient id="paint3_linear_138_1017" x1="176.192" y1="32.3669" x2="200.545" y2="32.3669" gradientUnits="userSpaceOnUse">
<stop stop-color="#4280EB"/>
<stop offset="1" stop-color="#319CDF"/>
</linearGradient>
</defs>
</svg>
