<svg width="33" height="32" viewBox="0 0 33 32" fill="none" xmlns="http://www.w3.org/2000/svg">
<g clip-path="url(#clip0_109_4773)">
<path d="M20.5 16L14.5 12V20L20.5 16Z" stroke="#00AEEF" stroke-width="2" stroke-linecap="round" stroke-linejoin="round"/>
<path d="M3.5 16C3.5 19.7387 3.88375 21.9312 4.17625 23.0587C4.2536 23.3654 4.40258 23.6494 4.61096 23.8873C4.81935 24.1253 5.08119 24.3104 5.375 24.4275C9.565 26.0437 16.5 26 16.5 26C16.5 26 23.435 26.0437 27.625 24.4275C27.9197 24.311 28.1826 24.1262 28.3919 23.8882C28.6012 23.6503 28.7509 23.3659 28.8288 23.0587C29.1213 21.9337 29.505 19.7387 29.505 16C29.505 12.2612 29.1213 10.0687 28.8288 8.94124C28.7518 8.6329 28.6024 8.34734 28.3931 8.10822C28.1838 7.8691 27.9205 7.68331 27.625 7.56624C23.435 5.95624 16.5 5.99999 16.5 5.99999C16.5 5.99999 9.565 5.95624 5.375 7.57249C5.07954 7.68956 4.81623 7.87535 4.6069 8.11447C4.39756 8.35359 4.24822 8.63915 4.17125 8.94749C3.88375 10.0675 3.5 12.2612 3.5 16Z" stroke="#00AEEF" stroke-width="2" stroke-linecap="round" stroke-linejoin="round"/>
</g>
<defs>
<clipPath id="clip0_109_4773">
<rect width="32" height="32" fill="white" transform="translate(0.5)"/>
</clipPath>
</defs>
</svg>
